<svg width="132" height="41" viewBox="0 0 132 41" fill="none" xmlns="http://www.w3.org/2000/svg">
<path d="M61.988 27H59.468L53.762 18.378V27H51.242V14.418H53.762L59.468 23.058V14.418H61.988V27ZM69.0863 27.162C68.1263 27.162 67.2623 26.952 66.4943 26.532C65.7263 26.1 65.1203 25.494 64.6763 24.714C64.2443 23.934 64.0283 23.034 64.0283 22.014C64.0283 20.994 64.2503 20.094 64.6943 19.314C65.1503 18.534 65.7683 17.934 66.5483 17.514C67.3283 17.082 68.1983 16.866 69.1583 16.866C70.1183 16.866 70.9883 17.082 71.7683 17.514C72.5483 17.934 73.1603 18.534 73.6043 19.314C74.0603 20.094 74.2883 20.994 74.2883 22.014C74.2883 23.034 74.0543 23.934 73.5863 24.714C73.1303 25.494 72.5063 26.1 71.7143 26.532C70.9343 26.952 70.0583 27.162 69.0863 27.162ZM69.0863 24.966C69.5423 24.966 69.9683 24.858 70.3643 24.642C70.7723 24.414 71.0963 24.078 71.3363 23.634C71.5763 23.19 71.6963 22.65 71.6963 22.014C71.6963 21.066 71.4443 20.34 70.9403 19.836C70.4483 19.32 69.8423 19.062 69.1223 19.062C68.4023 19.062 67.7963 19.32 67.3043 19.836C66.8243 20.34 66.5843 21.066 66.5843 22.014C66.5843 22.962 66.8183 23.694 67.2863 24.21C67.7663 24.714 68.3663 24.966 69.0863 24.966ZM79.2508 19.098V23.922C79.2508 24.258 79.3288 24.504 79.4848 24.66C79.6528 24.804 79.9288 24.876 80.3128 24.876H81.4828V27H79.8988C77.7748 27 76.7128 25.968 76.7128 23.904V19.098H75.5248V17.028H76.7128V14.562H79.2508V17.028H81.4828V19.098H79.2508ZM92.7454 21.798C92.7454 22.158 92.7214 22.482 92.6734 22.77H85.3834C85.4434 23.49 85.6954 24.054 86.1394 24.462C86.5834 24.87 87.1294 25.074 87.7774 25.074C88.7134 25.074 89.3794 24.672 89.7754 23.868H92.4934C92.2054 24.828 91.6534 25.62 90.8374 26.244C90.0214 26.856 89.0194 27.162 87.8314 27.162C86.8714 27.162 86.0074 26.952 85.2394 26.532C84.4834 26.1 83.8894 25.494 83.4574 24.714C83.0374 23.934 82.8274 23.034 82.8274 22.014C82.8274 20.982 83.0374 20.076 83.4574 19.296C83.8774 18.516 84.4654 17.916 85.2214 17.496C85.9774 17.076 86.8474 16.866 87.8314 16.866C88.7794 16.866 89.6254 17.07 90.3694 17.478C91.1254 17.886 91.7074 18.468 92.1154 19.224C92.5354 19.968 92.7454 20.826 92.7454 21.798ZM90.1354 21.078C90.1234 20.43 89.8894 19.914 89.4334 19.53C88.9774 19.134 88.4194 18.936 87.7594 18.936C87.1354 18.936 86.6074 19.128 86.1754 19.512C85.7554 19.884 85.4974 20.406 85.4014 21.078H90.1354ZM102.469 24.606H97.4647L96.6367 27H93.9907L98.5087 14.418H101.443L105.961 27H103.297L102.469 24.606ZM101.785 22.59L99.9667 17.334L98.1487 22.59H101.785ZM110.35 18.468C110.674 18.012 111.118 17.634 111.682 17.334C112.258 17.022 112.912 16.866 113.644 16.866C114.496 16.866 115.264 17.076 115.948 17.496C116.644 17.916 117.19 18.516 117.586 19.296C117.994 20.064 118.198 20.958 118.198 21.978C118.198 22.998 117.994 23.904 117.586 24.696C117.19 25.476 116.644 26.082 115.948 26.514C115.264 26.946 114.496 27.162 113.644 27.162C112.912 27.162 112.264 27.012 111.7 26.712C111.148 26.412 110.698 26.034 110.35 25.578V31.752H107.83V17.028H110.35V18.468ZM115.624 21.978C115.624 21.378 115.498 20.862 115.246 20.43C115.006 19.986 114.682 19.65 114.274 19.422C113.878 19.194 113.446 19.08 112.978 19.08C112.522 19.08 112.09 19.2 111.682 19.44C111.286 19.668 110.962 20.004 110.71 20.448C110.47 20.892 110.35 21.414 110.35 22.014C110.35 22.614 110.47 23.136 110.71 23.58C110.962 24.024 111.286 24.366 111.682 24.606C112.09 24.834 112.522 24.948 112.978 24.948C113.446 24.948 113.878 24.828 114.274 24.588C114.682 24.348 115.006 24.006 115.246 23.562C115.498 23.118 115.624 22.59 115.624 21.978ZM122.729 18.468C123.053 18.012 123.497 17.634 124.061 17.334C124.637 17.022 125.291 16.866 126.023 16.866C126.875 16.866 127.643 17.076 128.327 17.496C129.023 17.916 129.569 18.516 129.965 19.296C130.373 20.064 130.577 20.958 130.577 21.978C130.577 22.998 130.373 23.904 129.965 24.696C129.569 25.476 129.023 26.082 128.327 26.514C127.643 26.946 126.875 27.162 126.023 27.162C125.291 27.162 124.643 27.012 124.079 26.712C123.527 26.412 123.077 26.034 122.729 25.578V31.752H120.209V17.028H122.729V18.468ZM128.003 21.978C128.003 21.378 127.877 20.862 127.625 20.43C127.385 19.986 127.061 19.65 126.653 19.422C126.257 19.194 125.825 19.08 125.357 19.08C124.901 19.08 124.469 19.2 124.061 19.44C123.665 19.668 123.341 20.004 123.089 20.448C122.849 20.892 122.729 21.414 122.729 22.014C122.729 22.614 122.849 23.136 123.089 23.58C123.341 24.024 123.665 24.366 124.061 24.606C124.469 24.834 124.901 24.948 125.357 24.948C125.825 24.948 126.257 24.828 126.653 24.588C127.061 24.348 127.385 24.006 127.625 23.562C127.877 23.118 128.003 22.59 128.003 21.978Z" fill="white"/>
<path fill-rule="evenodd" clip-rule="evenodd" d="M20.1014 40.3232C31.1472 40.3232 40.1014 31.3689 40.1014 20.3232C40.1014 9.27754 31.1472 0.323242 20.1014 0.323242C9.05573 0.323242 0.10144 9.27754 0.10144 20.3232C0.10144 31.3689 9.05573 40.3232 20.1014 40.3232ZM23.1884 15.7758C24.8932 14.0709 24.8932 11.3068 23.1884 9.6019C21.4835 7.89702 18.7194 7.89702 17.0145 9.6019C15.3097 11.3068 15.3097 14.0709 17.0145 15.7758L20.1014 18.8627L23.1884 15.7758ZM24.6489 23.4102C26.3538 25.1151 29.1179 25.1151 30.8228 23.4102C32.5276 21.7053 32.5276 18.9412 30.8228 17.2363C29.1179 15.5315 26.3538 15.5315 24.6489 17.2363L21.562 20.3233L24.6489 23.4102ZM23.1884 31.0446C24.8932 29.3397 24.8932 26.5756 23.1884 24.8707L20.1014 21.7838L17.0145 24.8707C15.3097 26.5756 15.3097 29.3397 17.0145 31.0446C18.7194 32.7495 21.4835 32.7495 23.1884 31.0446ZM9.38007 23.4102C7.67523 21.7053 7.67523 18.9412 9.38007 17.2363C11.085 15.5315 13.8491 15.5315 15.554 17.2363L18.6409 20.3233L15.554 23.4102C13.8491 25.1151 11.085 25.1151 9.38007 23.4102Z" fill="#6560C5"/>
</svg>
